<?xml version="1.0" encoding="UTF-8"?>
<svg version="1.1" xmlns="http://www.w3.org/2000/svg" width="423" height="433">
<path d="M0 0 C2.37193543 -0.00407214 4.74386896 -0.00941761 7.11579895 -0.01593018 C13.51865409 -0.02953302 19.92136317 -0.02433425 26.32422066 -0.01479292 C30.33210033 -0.01024274 34.33994459 -0.0104749 38.3478241 -0.0132637 C39.01587369 -0.0137234 39.68392327 -0.0141831 40.37221679 -0.01465673 C41.72989882 -0.01561603 43.08758084 -0.01658867 44.44526285 -0.0175745 C57.13736249 -0.02610248 69.82939682 -0.01633517 82.52148575 -0.0001734 C93.38105571 0.01322742 104.24052943 0.0108986 115.10009766 -0.00292969 C127.75082622 -0.01903155 140.40149774 -0.02527875 153.05223513 -0.0160929 C154.40455913 -0.01513738 155.75688314 -0.01419427 157.10920715 -0.0132637 C157.77435045 -0.01280088 158.43949375 -0.01233805 159.1247929 -0.0118612 C163.7826868 -0.00928508 168.44054316 -0.01376132 173.09843445 -0.02070236 C179.38260636 -0.02941392 185.66659779 -0.02327387 191.95075035 -0.00601959 C194.24719125 -0.00207706 196.54364753 -0.00315014 198.84008217 -0.00980759 C225.96731433 -0.08115691 248.58765432 4.68709325 268.60351562 24.26318359 C273.7113707 29.45347662 277.6992944 35.00332906 281.22851562 41.38818359 C281.68742187 42.16291016 282.14632813 42.93763672 282.61914062 43.73583984 C291.46110469 59.68866055 290.80036938 76.94500723 290.73022461 94.62548828 C290.73180575 97.35712275 290.73936684 100.08873371 290.74659729 102.82035828 C290.76044346 109.43436553 290.75303882 116.0481803 290.73792171 122.66217819 C290.72096213 130.3792366 290.72428416 138.0962484 290.72801579 145.81331971 C290.73387816 159.58815023 290.7197847 173.36288898 290.69506836 187.13769531 C290.67113367 200.47855057 290.66407346 213.81928337 290.67456055 227.16015625 C290.68598812 241.72334072 290.68787856 256.28646872 290.67346245 270.84965253 C290.67193675 272.40439939 290.6704164 273.95914626 290.66890144 275.51389313 C290.66814363 276.27867154 290.66738582 277.04344996 290.66660504 277.83140348 C290.66187788 283.20054578 290.66370233 288.56966272 290.66796684 293.93880463 C290.67291003 300.48583364 290.66683531 307.03274727 290.64707255 313.57974997 C290.63725008 316.9150332 290.63366655 320.24999611 290.63996506 323.58530998 C290.64595132 327.2106842 290.63334825 330.83554809 290.61619568 334.46087646 C290.62521075 336.02043631 290.62521075 336.02043631 290.63440794 337.61150241 C290.54699915 347.82196369 288.31428862 357.37734056 283.60351562 366.45068359 C283.2594165 367.12478271 282.91531738 367.79888184 282.56079102 368.4934082 C279.22376639 374.79467677 275.06667508 380.15417473 270.22851562 385.38818359 C269.64328125 386.04173828 269.05804688 386.69529297 268.45507812 387.36865234 C257.28812237 399.2433729 239.62772636 408.73557479 223.13213575 409.48319685 C220.46434875 409.52632367 217.79819168 409.53586759 215.13005066 409.53535461 C214.10392884 409.5390313 213.07780702 409.54270799 212.0205906 409.54649609 C208.57711719 409.55752188 205.13367396 409.56137497 201.69018555 409.56518555 C199.22282821 409.57145121 196.75547182 409.5780981 194.28811646 409.58509827 C186.87886024 409.60431816 179.46961204 409.61492718 172.06033823 409.62382606 C168.56525727 409.62821502 165.07017781 409.6335804 161.57509804 409.63881493 C149.94524926 409.65582742 138.31540141 409.67031815 126.68554211 409.67756367 C123.66934902 409.67947336 120.65315595 409.68139372 117.63696289 409.68334961 C116.88736183 409.68383335 116.13776077 409.68431709 115.36544452 409.68481549 C103.24208712 409.69310289 91.1188288 409.71841782 78.99551459 409.75093029 C66.52898028 409.78408853 54.06249614 409.80202047 41.59591752 409.80520791 C34.60452875 409.80736534 27.61328429 409.81600037 20.62193871 409.84166908 C14.03668466 409.86579175 7.45164221 409.86914705 0.86633682 409.8589077 C-1.54095383 409.85841434 -3.94825759 409.86467521 -6.3555088 409.87846375 C-32.61402748 410.02036287 -54.45904469 404.75831209 -74.13476562 386.17724609 C-82.1860571 377.66076889 -88.20147124 367.5633529 -91.77148438 356.38818359 C-92.15160974 355.25246068 -92.15160974 355.25246068 -92.53941441 354.09379387 C-95.944864 341.99058915 -95.19953151 329.459545 -95.17553711 316.99804688 C-95.18124557 314.32098279 -95.1881122 311.6439437 -95.19633484 308.96688843 C-95.21345267 302.47382636 -95.21437752 295.98086137 -95.20912194 289.48778261 C-95.20506585 284.2055076 -95.20654079 278.92326107 -95.21187019 273.6409874 C-95.21261862 272.88663063 -95.21336704 272.13227386 -95.21413814 271.3550578 C-95.21566976 269.8221457 -95.2172081 268.28923362 -95.21875311 266.75632153 C-95.23245277 252.40989559 -95.22705833 238.06352432 -95.21556789 223.71709965 C-95.2056382 210.6203561 -95.21857611 197.52375389 -95.24250209 184.42703213 C-95.26694158 170.94661554 -95.27648907 157.46626465 -95.26984936 143.98582637 C-95.26636789 136.43066539 -95.26851796 128.87561302 -95.28610039 121.3204689 C-95.30088324 114.8890864 -95.30137898 108.457889 -95.28402948 102.0265099 C-95.27556667 98.75159678 -95.27545508 95.47707832 -95.28868103 92.20217133 C-95.33780652 79.02647128 -95.34860262 66.87362341 -90.77148438 54.38818359 C-90.37300513 53.28880526 -89.97452589 52.18942692 -89.56397152 51.05673409 C-81.81067301 30.57831198 -66.62474775 15.52623061 -46.89648438 6.51318359 C-31.80823561 -0.23253453 -16.20668508 -0.04698376 0 0 Z M13.22851562 59.38818359 C9.49803197 64.90396368 9.80448882 70.21207662 9.84083557 76.62329102 C9.83545003 77.75941173 9.8300645 78.89553244 9.82451576 80.06608105 C9.81020118 83.87538146 9.81734876 87.6843361 9.82446289 91.49365234 C9.82040488 94.22369285 9.81189847 96.95371566 9.80366516 99.68374634 C9.78647553 106.3304911 9.78563738 112.97714134 9.79087806 119.62390256 C9.79492029 125.02608273 9.79347559 130.42823498 9.78812981 135.83041382 C9.78738138 136.59941897 9.78663296 137.36842411 9.78586186 138.16073245 C9.78433038 139.72297486 9.78279203 141.28521727 9.78124689 142.84745967 C9.76752155 157.49497793 9.77296004 172.14244276 9.78443211 186.78995979 C9.79436706 200.19068739 9.78141939 213.59127698 9.75749791 226.99198329 C9.73311746 240.75350761 9.72349628 254.51496761 9.73015064 268.2765131 C9.73364489 276.00195899 9.73139715 283.7272987 9.71389961 291.45272827 C9.69919089 298.02836587 9.69852477 304.60382248 9.71597052 311.17945647 C9.72449375 314.53427084 9.72443779 317.88849563 9.71131897 321.24333572 C9.69818112 324.88022346 9.70959396 328.51622698 9.72731018 332.15307617 C9.71770517 333.21319003 9.70810017 334.27330389 9.6982041 335.36554241 C9.75607915 341.12474729 10.02431879 345.04203752 14.22851562 349.38818359 C18.61726754 351.52016277 22.64678149 351.64102483 27.47741699 351.64888 C28.1847647 351.65270555 28.89211242 351.6565311 29.62089491 351.66047257 C31.97911081 351.67074971 34.33708083 351.6668206 36.6953125 351.6628418 C38.39087651 351.66719114 40.08643855 351.67237504 41.78199768 351.67832947 C46.37902828 351.69170524 50.97597658 351.69229983 55.57302284 351.68976617 C59.41259722 351.68869571 63.252155 351.69358162 67.09172583 351.69837159 C76.14954211 351.70946138 85.20731693 351.70990683 94.26513672 351.70385742 C103.60714156 351.69781417 112.94899592 351.71013877 122.29097509 351.73142749 C130.31576163 351.74904162 138.34050026 351.75504523 146.36530542 351.75178975 C151.15645599 351.7499768 155.94749915 351.75261447 160.7386322 351.76650429 C165.24322764 351.7790753 169.74758828 351.77714543 174.2521801 351.7640934 C175.90414954 351.76172666 177.55613548 351.76446579 179.20808601 351.77271652 C181.46553445 351.78317754 183.72219402 351.77508926 185.97961426 351.7624054 C187.87327099 351.76265701 187.87327099 351.76265701 189.80518341 351.7629137 C194.37254812 351.26295373 197.74178931 349.8106297 201.06933594 346.62695312 C202.66500242 343.54517941 202.68257009 341.03026073 202.77539062 337.56787109 C202.7957135 336.90917023 202.81603638 336.25046936 202.8369751 335.57180786 C202.87710185 334.17842177 202.91029631 332.78482101 202.93701172 331.39111328 C202.97798418 329.29043103 203.04074715 327.19131545 203.10742188 325.09130859 C203.98643863 312.30321012 203.98643863 312.30321012 200.47851562 300.38818359 C195.55967136 296.01587758 190.68344916 296.11269319 184.42773438 296.19287109 C183.59135941 296.19570099 182.75498444 296.19853088 181.89326477 296.20144653 C179.23403336 296.21260039 176.57514445 296.23769597 173.91601562 296.26318359 C172.1080778 296.2732196 170.30013466 296.28234437 168.4921875 296.29052734 C164.0708325 296.31252401 159.64973204 296.34702065 155.22851562 296.38818359 C155.17750901 289.59296907 155.14265405 282.79780453 155.11865234 276.00244141 C155.10863878 273.69415441 155.095024 271.38587995 155.07763672 269.07763672 C155.05318335 265.74622488 155.04198574 262.4149818 155.03320312 259.08349609 C155.02288055 258.06329376 155.01255798 257.04309143 155.00192261 255.99197388 C154.99930131 238.98203514 154.99930131 238.98203514 160.47851562 232.70068359 C161.09855469 231.96462891 161.71859375 231.22857422 162.35742188 230.47021484 C163.5256439 229.17029346 164.69924707 227.87516422 165.88085938 226.58740234 C173.23237536 218.45022816 175.42212928 210.01280017 175.37695312 199.18505859 C175.37480804 198.36398621 175.37266296 197.54291382 175.37045288 196.69696045 C175.28565129 186.44130453 174.68477553 176.2114219 174.05664062 165.97705078 C173.85128915 162.60158586 173.66060542 159.2254866 173.47070312 155.84912109 C173.34137063 153.67979787 173.2111937 151.51052478 173.08007812 149.34130859 C173.02477936 148.34335266 172.96948059 147.34539673 172.9125061 146.31719971 C172.57659775 141.05141701 171.91215923 136.39483086 170.22851562 131.38818359 C169.23851562 131.88318359 169.23851562 131.88318359 168.22851562 132.38818359 C167.17489404 139.07490414 167.05452256 145.72781758 166.98242188 152.48583984 C166.94950322 154.60758907 166.91629126 156.72933376 166.8828125 158.85107422 C166.83537389 162.15776685 166.7908528 165.46443855 166.75170898 168.77124023 C166.71184475 171.98878538 166.66036544 175.20598695 166.60742188 178.42333984 C166.59900772 179.40375748 166.59059357 180.38417511 166.58192444 181.39430237 C166.33375065 195.28294857 166.33375065 195.28294857 163.22851562 198.38818359 C161.56234447 198.42882191 159.89463468 198.4309046 158.22851562 198.38818359 C155.98668638 192.9571154 155.90180961 188.00963448 155.84960938 182.23193359 C155.8326149 181.25260864 155.81562042 180.27328369 155.79811096 179.26428223 C155.74518108 176.13898138 155.70485526 173.01368863 155.66601562 169.88818359 C155.60739487 165.79434105 155.54316098 161.70062154 155.47460938 157.60693359 C155.45868744 156.62764893 155.4427655 155.64836426 155.42636108 154.6394043 C155.28729026 147.194737 154.9030598 139.80574018 154.22851562 132.38818359 C153.23851562 132.38818359 152.24851562 132.38818359 151.22851562 132.38818359 C151.2079007 133.06532913 151.18728577 133.74247467 151.16604614 134.44013977 C150.94856472 141.53033859 150.71949208 148.62009759 150.48388672 155.7097168 C150.39761907 158.3505731 150.31424133 160.99152553 150.23388672 163.63256836 C150.11742888 167.44332771 149.99035271 171.25361271 149.86132812 175.06396484 C149.82790314 176.23212234 149.79447815 177.40027985 149.76004028 178.60383606 C149.5075456 185.69520121 148.71568712 192.44814103 147.22851562 199.38818359 C144.85351562 199.57568359 144.85351562 199.57568359 142.22851562 199.38818359 C139.26968955 194.94994449 139.10627033 190.98780924 139.05493164 185.7434082 C139.0414418 184.63553452 139.02795197 183.52766083 139.01405334 182.38621521 C138.99839577 180.60634972 138.99839577 180.60634972 138.98242188 178.79052734 C138.94949968 176.27294553 138.91628777 173.75536749 138.8828125 171.23779297 C138.83530171 167.27224179 138.79082844 163.30670766 138.75170898 159.34106445 C138.71207298 155.51156205 138.66052646 151.6823633 138.60742188 147.85302734 C138.59480064 146.0701255 138.59480064 146.0701255 138.58192444 144.25120544 C138.56528244 143.14648392 138.54864044 142.04176239 138.53149414 140.90356445 C138.51603294 139.44725868 138.51603294 139.44725868 138.5002594 137.96153259 C138.22106123 135.31759221 137.57419742 133.65866975 136.22851562 131.38818359 C135.89851563 131.38818359 135.56851563 131.38818359 135.22851562 131.38818359 C133.97285816 136.28366629 134.04010364 141.13839929 133.98242188 146.15771484 C133.94943853 148.11930709 133.91622776 150.08089553 133.8828125 152.04248047 C133.83581124 155.10486809 133.79144953 158.16724563 133.75170898 161.22973633 C133.28832939 195.32836983 133.28832939 195.32836983 129.22851562 199.38818359 C127.22851562 199.26318359 127.22851562 199.26318359 125.22851562 198.38818359 C122.94065521 194.95510968 122.85270573 191.69119922 122.63867188 187.63818359 C122.58345116 186.60685303 122.58345116 186.60685303 122.52711487 185.5546875 C122.01380889 175.17442133 121.86395677 164.77807384 121.66601562 154.38818359 C121.62270319 152.24494819 121.57908546 150.10171894 121.53515625 147.95849609 C121.42942998 142.76845593 121.32781077 137.57835061 121.22851562 132.38818359 C119.74351562 132.88318359 119.74351562 132.88318359 118.22851562 133.38818359 C110.17848151 181.86613959 110.17848151 181.86613959 122.66601562 226.32568359 C124.1701641 228.0280724 125.68938134 229.71735867 127.22851562 231.38818359 C131.4443572 236.23888131 133.3307051 239.31308623 133.43383789 245.86938477 C133.45378311 246.99032028 133.47372833 248.1112558 133.49427795 249.26615906 C133.51099045 250.47560684 133.52770294 251.68505463 133.54492188 252.93115234 C133.56570297 254.16988602 133.58648407 255.40861969 133.6078949 256.68489075 C133.6622336 259.97443616 133.71247513 263.26401086 133.76074219 266.5536499 C133.81102208 269.91196173 133.86667424 273.27018406 133.921875 276.62841797 C134.0290461 283.21493518 134.13081698 289.80151944 134.22851562 296.38818359 C126.7533365 296.3465846 119.27890616 296.27432723 111.80419922 296.18066406 C109.26097372 296.15242403 106.71765995 296.13122469 104.17431641 296.1171875 C100.5200471 296.09580083 96.86684248 296.04916968 93.21289062 295.99755859 C92.07422546 295.99632996 90.9355603 295.99510132 89.76239014 295.99383545 C88.70159241 295.97411682 87.64079468 295.95439819 86.54785156 295.93408203 C85.6151947 295.92519958 84.68253784 295.91631714 83.72161865 295.90716553 C80.29271374 295.19338046 79.32075095 294.20899005 77.22851562 291.38818359 C76.6304255 288.39780813 76.69071475 285.44680619 76.72299194 282.40567017 C76.71690182 281.48768658 76.7108117 280.56970299 76.70453703 279.62390172 C76.68889182 276.54067868 76.70174373 273.45822743 76.71435547 270.375 C76.70889679 268.16741954 76.70165663 265.95984286 76.69276428 263.75227356 C76.67740531 258.99464102 76.67463429 254.2372242 76.68153 249.4795723 C76.69229558 241.95841253 76.6749589 234.43747908 76.65371704 226.91635132 C76.62687354 216.37277604 76.61252964 205.82924858 76.609375 195.28564453 C76.60917101 194.61659208 76.60896702 193.94753962 76.60875686 193.25821285 C76.60855349 192.58833326 76.60835012 191.91845367 76.60814059 191.2282747 C76.605222 181.73599817 76.59842172 172.24373504 76.58691406 162.75146484 C76.58570612 161.75001881 76.58570612 161.75001881 76.58447377 160.72834153 C76.57071442 149.59302933 76.5489067 138.4577389 76.52304423 127.32244813 C76.50653174 119.84431917 76.50113244 112.36628731 76.50463462 104.88814187 C76.50507141 100.23673904 76.49751068 95.58537292 76.48795891 90.93398094 C76.48527427 88.77567251 76.48603097 86.61735667 76.49046898 84.45905113 C76.49610593 81.51416155 76.4895679 78.56953827 76.48007202 75.62466431 C76.48706684 74.34177755 76.48706684 74.34177755 76.49420297 73.03297389 C76.46514045 68.42104147 75.99229457 64.72958272 74.22851562 60.38818359 C73.56851563 60.38818359 72.90851563 60.38818359 72.22851562 60.38818359 C72.22851562 59.72818359 72.22851562 59.06818359 72.22851562 58.38818359 C68.80011477 56.85314027 66.10107431 56.13451268 62.34985352 56.11352539 C61.40860123 56.10399338 60.46734894 56.09446136 59.49757385 56.0846405 C58.4922612 56.08555191 57.48694855 56.08646332 56.45117188 56.08740234 C54.88501381 56.08097466 54.88501381 56.08097466 53.28721619 56.07441711 C51.08251672 56.06868276 48.87779835 56.06816695 46.6730957 56.07250977 C43.306474 56.07566909 39.94073185 56.0522009 36.57421875 56.02685547 C34.42903756 56.02458228 32.28385402 56.02387907 30.13867188 56.02490234 C29.13538345 56.0156926 28.13209503 56.00648285 27.09840393 55.99699402 C21.80384617 56.03191411 17.64239135 56.12519274 13.22851562 59.38818359 Z " fill="#FE6F08" transform="translate(113.771484375,10.61181640625)"/>
<path d="M0 0 C19.14 0 38.28 0 58 0 C58.495 2.475 58.495 2.475 59 5 C59.32483418 6.33542939 59.6550855 7.66961551 60 9 C60.66 9 61.32 9 62 9 C62.00423194 10.1549808 62.00846388 11.30996161 62.01282406 12.49994183 C62.11348202 39.91187825 62.21918797 67.32379134 62.33111694 94.73568417 C62.34488665 98.10902692 62.35861373 101.48236985 62.37231445 104.85571289 C62.37504276 105.52728966 62.37777106 106.19886643 62.38058204 106.89079402 C62.4246667 117.76733751 62.46529704 128.64389131 62.50465261 139.52045282 C62.54510666 150.67936483 62.58934185 161.8382583 62.63687855 172.99714261 C62.66346159 179.26551128 62.68831428 185.53387619 62.70907402 191.80226707 C62.72865879 197.69958002 62.75280819 203.59685648 62.78049088 209.49413681 C62.78985154 211.66091944 62.79753035 213.82771008 62.80341911 215.99450493 C62.81169697 218.94866246 62.8259785 221.90273184 62.84178162 224.8568573 C62.84275972 225.71775646 62.84373783 226.57865562 62.84474558 227.46564263 C62.85022002 228.25936188 62.85569446 229.05308113 62.8613348 229.87085247 C62.86532186 230.89324946 62.86532186 230.89324946 62.86938947 231.93630093 C62.98608928 234.51019427 62.98608928 234.51019427 64 239 C81.49 239.33 98.98 239.66 117 240 C117 222.84 117 205.68 117 188 C116.34 188 115.68 188 115 188 C114.32645501 186.56570999 113.66140299 185.12742943 113 183.6875 C112.62875 182.88699219 112.2575 182.08648437 111.875 181.26171875 C111 179 111 179 111 176 C111.98475214 177.09918816 112.96260473 178.2045602 113.9375 179.3125 C114.48277344 179.92738281 115.02804688 180.54226562 115.58984375 181.17578125 C118.14919893 184.48663685 118.12258369 187.45025772 118.11352539 191.48120117 C118.11341209 193.16260445 118.11341209 193.16260445 118.11329651 194.87797546 C118.10813522 196.08742325 118.10297394 197.29687103 118.09765625 198.54296875 C118.0962413 199.78170242 118.09482635 201.0204361 118.09336853 202.29670715 C118.08871602 205.58631537 118.0797339 208.8758746 118.06866455 212.16546631 C118.05842629 215.52371623 118.05386574 218.88197333 118.04882812 222.24023438 C118.03779145 228.82684212 118.02104767 235.41341705 118 242 C110.54372316 242.12680254 103.08772445 242.21435293 95.63061523 242.2746582 C93.0940512 242.29979839 90.55755958 242.33391537 88.02124023 242.37719727 C84.37465549 242.43786661 80.72902868 242.46621574 77.08203125 242.48828125 C75.94852737 242.51408768 74.8150235 242.5398941 73.64717102 242.56648254 C72.58644882 242.5668602 71.52572662 242.56723785 70.43286133 242.56762695 C69.50242508 242.57873001 68.57198883 242.58983307 67.61335754 242.60127258 C63.76375579 241.71556906 62.42664313 240.09569838 60 237 C59.2743525 233.9644678 59.32628087 231.00681933 59.36749268 227.89723206 C59.35984257 226.97839405 59.35219245 226.05955603 59.34431052 225.11287445 C59.32469853 222.03261058 59.34067837 218.95356189 59.35644531 215.87329102 C59.34963061 213.66556034 59.34060935 211.45783553 59.32954407 209.25012207 C59.30561837 203.25215623 59.31226913 197.25456134 59.32403278 191.25657392 C59.33087444 184.98260165 59.30878307 178.70873583 59.28948975 172.43479919 C59.26083432 161.89718734 59.24886671 151.35966346 59.25048828 140.82202148 C59.25209662 129.98410692 59.24608924 119.14625041 59.22802734 108.30834961 C59.22691937 107.64098164 59.22581139 106.97361367 59.22466984 106.28602243 C59.21237846 98.99784537 59.19823488 91.7096724 59.18333054 84.42150021 C59.1781053 81.84797097 59.17288296 79.27444173 59.16766357 76.70091248 C59.16375614 74.81628993 59.16375614 74.81628993 59.15976977 72.89359421 C59.1451246 65.41966369 59.13818674 57.94577507 59.13801527 50.47183049 C59.13736853 45.82371814 59.13302024 41.17561347 59.12804222 36.52750397 C59.12668042 34.37080613 59.12705582 32.2141064 59.12928963 30.05740929 C59.13219619 27.11483424 59.12908109 24.17232322 59.12457275 21.22975159 C59.12700525 20.37517587 59.12943774 19.52060015 59.13194394 18.6401282 C59.11889031 14.31270118 58.86570651 10.2618204 58 6 C57.34 6 56.68 6 56 6 C56 5.34 56 4.68 56 4 C52.66117146 3.25513051 49.55582439 2.86731615 46.13720703 2.83886719 C45.19918243 2.82925964 44.26115784 2.8196521 43.29470825 2.80975342 C41.79144485 2.8033786 41.79144485 2.8033786 40.2578125 2.796875 C39.2160788 2.79117493 38.17434509 2.78547485 37.1010437 2.77960205 C34.90054332 2.77017101 32.70002893 2.76362562 30.49951172 2.75976562 C27.14395411 2.75005485 23.7890079 2.71901086 20.43359375 2.6875 C18.29167029 2.68096981 16.14974247 2.6757194 14.0078125 2.671875 C13.00968536 2.6595282 12.01155823 2.6471814 10.98318481 2.63446045 C5.19854595 2.65284416 1.13807425 3.29668953 -4 6 C-3.34 4.68 -2.68 3.36 -2 2 C-1.34 2 -0.68 2 0 2 C0 1.34 0 0.68 0 0 Z " fill="#D6520F" transform="translate(130,65)"/>
<path d="M0 0 C0.33 0 0.66 0 1 0 C1 93.06 1 186.12 1 282 C1.99 281.67 2.98 281.34 4 281 C3.67 284.63 3.34 288.26 3 292 C-1.74904492 284.87643263 -1.2884676 275.7139104 -1.24723816 267.42900085 C-1.24965257 266.30509109 -1.25206699 265.18118132 -1.25455457 264.02321368 C-1.2601639 260.27933162 -1.25154939 256.53562229 -1.24291992 252.79174805 C-1.24399346 250.09890811 -1.24585323 247.40607917 -1.24867249 244.71324158 C-1.25369747 238.17299953 -1.24809492 231.63280831 -1.23882218 225.09257259 C-1.22840953 217.47313264 -1.22850911 209.85370352 -1.22899476 202.23425779 C-1.22949466 188.64110583 -1.22035204 175.04797744 -1.20581055 161.45483398 C-1.19171068 148.26765514 -1.18464043 135.08049703 -1.18530273 121.89331055 C-1.18534269 121.08032801 -1.18538265 120.26734547 -1.18542381 119.4297271 C-1.18546417 118.61814083 -1.18550452 117.80655456 -1.1855461 116.97037476 C-1.18623588 101.94654354 -1.18034809 86.92272112 -1.17139288 71.89889276 C-1.16837738 66.58815506 -1.16731344 61.27741898 -1.16686058 55.96668053 C-1.16617851 49.49839734 -1.16171445 43.030129 -1.15252777 36.56185212 C-1.14791127 33.26199765 -1.14539556 29.96216598 -1.14612198 26.66230774 C-1.14661131 23.08687543 -1.14097041 19.51150468 -1.13371277 15.93608093 C-1.13526137 14.8913465 -1.13680997 13.84661208 -1.1384055 12.77021903 C-1.13518106 11.81198039 -1.13195661 10.85374174 -1.12863445 9.86646557 C-1.12793003 9.04143793 -1.1272256 8.2164103 -1.12649983 7.36638182 C-0.99105094 4.83259354 -0.55411637 2.4732769 0 0 Z " fill="#DC6D27" transform="translate(20,75)"/>
<path d="M0 0 C3.3 0 6.6 0 10 0 C2.72846354 7.27153646 -13.10010274 5.38699998 -22.56208801 5.39547729 C-24.88864232 5.38805157 -27.21519567 5.3803205 -29.54174805 5.37231445 C-32.02002108 5.37474544 -34.49829313 5.37846774 -36.9765625 5.38337708 C-42.98270017 5.3917756 -48.988676 5.38631132 -54.99479493 5.37411413 C-62.00048539 5.36042226 -69.00614775 5.36213822 -76.01184819 5.36424746 C-88.5161429 5.36742965 -101.02038044 5.35581273 -113.5246582 5.33618164 C-125.63860819 5.31716855 -137.75249124 5.31009826 -149.86645508 5.31567383 C-163.08514456 5.32173993 -176.3038047 5.32154027 -189.52249175 5.310188 C-190.93345471 5.3089808 -192.34441767 5.30777482 -193.75538063 5.30657005 C-194.79649754 5.30566475 -194.79649754 5.30566475 -195.8586471 5.30474115 C-200.73426125 5.30087266 -205.60986442 5.30125142 -210.48547935 5.3031559 C-217.05273958 5.30550696 -223.61992638 5.29690455 -230.18717194 5.2810955 C-232.59375212 5.2768619 -235.000341 5.27599587 -237.40692329 5.27878571 C-240.69806702 5.28202156 -243.98895738 5.27289031 -247.28007507 5.26069641 C-248.22648902 5.26447573 -249.17290297 5.26825506 -250.14799613 5.27214891 C-256.30601015 5.23193951 -262.00875845 4.41733051 -268 3 C-268 2.67 -268 2.34 -268 2 C-264.04437573 1.92936385 -260.4055115 1.9426991 -256.47750854 2.49774647 C-251.58845039 3.11819932 -246.75123441 3.14199315 -241.82861328 3.13371277 C-240.33224681 3.1371111 -240.33224681 3.1371111 -238.80565071 3.14057809 C-235.47719273 3.14688668 -232.14877579 3.14609076 -228.8203125 3.14526367 C-226.42820178 3.14825705 -224.03609154 3.15165999 -221.64398193 3.15544128 C-215.82972714 3.16334984 -210.01548471 3.16649504 -204.2012248 3.16705366 C-199.47417526 3.16752975 -194.74712905 3.16958913 -190.02008057 3.17275429 C-176.60551244 3.18155319 -163.19095229 3.18617465 -149.77638125 3.18542381 C-149.05417935 3.18538386 -148.33197744 3.1853439 -147.58789062 3.18530273 C-146.86480312 3.18526185 -146.14171561 3.18522097 -145.39671636 3.18517885 C-133.6723367 3.18477221 -121.94798912 3.19434847 -110.22361875 3.2084411 C-98.17287232 3.22281135 -86.12214155 3.22971098 -74.07138634 3.22884732 C-67.31061827 3.22851567 -60.54988387 3.23124938 -53.78912354 3.24202538 C-47.43288167 3.25170203 -41.07671097 3.25178845 -34.72046661 3.24450874 C-32.38883612 3.24346249 -30.05720121 3.24582818 -27.72557831 3.2518692 C-24.54076403 3.25958598 -21.3561957 3.25494628 -18.17138672 3.24723816 C-16.79043918 3.2549535 -16.79043918 3.2549535 -15.3815937 3.26282471 C-9.92220958 3.23366299 -5.24483236 2.53488247 0 1 C0 0.67 0 0.34 0 0 Z " fill="#E96B1C" transform="translate(344,415)"/>
<path d="M0 0 C1.65 0.33 3.3 0.66 5 1 C5 5.29 5 9.58 5 14 C4.67 14 4.34 14 4 14 C3.67 10.04 3.34 6.08 3 2 C2.67 2 2.34 2 2 2 C1.96907761 3.02238014 1.96907761 3.02238014 1.93753052 4.06541443 C1.72042491 11.18776055 1.4913154 18.30965008 1.25537109 25.43139648 C1.16803223 28.08593178 1.08561533 30.74048942 1.00537109 33.39526367 C0.88920532 37.22084625 0.76204059 41.04593281 0.6328125 44.87109375 C0.59938751 46.04957382 0.56596252 47.22805389 0.53152466 48.44224548 C-0.04474882 64.62918713 -0.04474882 64.62918713 -3.44284058 68.74949646 C-5 70 -5 70 -7.0625 69.875 C-9 69 -9 69 -11 66 C-11.95559251 62.39550835 -12.12191834 59.0098231 -12.11352539 55.29174805 C-12.11344986 54.17096359 -12.11337433 53.05017914 -12.11329651 51.89543152 C-12.10813522 50.6963063 -12.10297394 49.49718109 -12.09765625 48.26171875 C-12.0962413 47.02581497 -12.09482635 45.78991119 -12.09336853 44.51655579 C-12.08872618 41.24341655 -12.07975311 37.97032713 -12.06866455 34.69720459 C-12.05840404 31.35217752 -12.05394631 28.00714827 -12.04882812 24.66210938 C-12.03780907 18.1080535 -12.02107836 11.55403082 -12 5 C-11.67 5 -11.34 5 -11 5 C-10.67 6.98 -10.34 8.96 -10 11 C-9.67 11 -9.34 11 -9 11 C-9.00523682 11.59538574 -9.01047363 12.19077148 -9.01586914 12.80419922 C-9.03661999 15.49445547 -9.04965407 18.18469489 -9.0625 20.875 C-9.07087891 21.81214844 -9.07925781 22.74929687 -9.08789062 23.71484375 C-9.09111328 24.61074219 -9.09433594 25.50664062 -9.09765625 26.4296875 C-9.10551147 27.67081299 -9.10551147 27.67081299 -9.11352539 28.93701172 C-9.13352138 31.06411757 -9.13352138 31.06411757 -8 33 C-4.90251302 32.16247221 -4.90251302 32.16247221 -2 30 C-1.4900449 26.94026942 -1.17676988 24.08301569 -1 21 C-0.94577881 20.10788818 -0.89155762 19.21577637 -0.83569336 18.29663086 C-0.6826857 15.51081089 -0.55582793 12.72499574 -0.4375 9.9375 C-0.39431641 8.97650391 -0.35113281 8.01550781 -0.30664062 7.02539062 C-0.20178868 4.68369723 -0.09962212 2.34192071 0 0 Z " fill="#ED6C17" transform="translate(264,141)"/>
<path d="M0 0 C0.7425 0.639375 1.485 1.27875 2.25 1.9375 C6.74712492 5.31034369 10.45377626 5.12737272 16.00839233 5.14044189 C17.06685063 5.14489858 17.06685063 5.14489858 18.14669192 5.1494453 C20.51105534 5.15811658 22.87536803 5.1596392 25.23974609 5.16113281 C26.93501391 5.16576203 28.6302807 5.17078684 30.32554626 5.17617798 C34.9309369 5.18929245 39.53631296 5.19574488 44.14171934 5.20018864 C47.01893656 5.20312041 49.8961498 5.20722539 52.77336502 5.21169281 C61.77552407 5.22536416 70.77767402 5.23503305 79.77984273 5.2388947 C90.17187304 5.24337712 100.56377193 5.26093505 110.95576227 5.2898953 C118.98899397 5.31150541 127.02218867 5.3215986 135.05544913 5.32293582 C139.85334617 5.32398417 144.65111961 5.32989857 149.44898605 5.34775543 C153.96174906 5.36422489 158.47429538 5.36639711 162.98707771 5.35761642 C164.64227567 5.35684549 166.29748523 5.36119618 167.95265388 5.37107468 C170.21457408 5.38378165 172.47572535 5.37792477 174.73764038 5.36749268 C176.63519357 5.36969252 176.63519357 5.36969252 178.57108116 5.3719368 C182.32719555 4.96450891 184.7037157 3.78106231 188 2 C188.99 2 189.98 2 191 2 C190.67 2.99 190.34 3.98 190 5 C188.67696283 5.3721042 187.34262065 5.70630173 186 6 C185.67 6.66 185.34 7.32 185 8 C124.94 8 64.88 8 3 8 C3 7.34 3 6.68 3 6 C2.34 6 1.68 6 1 6 C1 7.32 1 8.64 1 10 C0.34 10 -0.32 10 -1 10 C-0.67 6.7 -0.34 3.4 0 0 Z " fill="#D04F13" transform="translate(125,356)"/>
<path d="M0 0 C5.34815077 8.02222616 5.44047256 18.73778809 5.3742218 28.10139465 C5.37819621 29.24616876 5.38217061 30.39094286 5.38626546 31.57040709 C5.39581128 35.36713673 5.38411717 39.16348651 5.37231445 42.96020508 C5.37308701 45.69788183 5.37835097 48.43554596 5.38337708 51.17321777 C5.39282058 57.81233462 5.38630532 64.45134207 5.37411413 71.09045074 C5.3604352 78.83029014 5.36213705 86.57010404 5.36424746 94.30995246 C5.36743058 108.12096397 5.35580661 121.93192375 5.33618164 135.74291992 C5.3171619 149.13160781 5.31009976 162.52023512 5.31567383 175.90893555 C5.32173522 190.51123726 5.32154936 205.1135124 5.310188 219.71581191 C5.30898077 221.27334225 5.30777478 222.83087259 5.30657005 224.38840294 C5.30566475 225.53774228 5.30566475 225.53774228 5.30474115 226.7103006 C5.30086756 232.10081862 5.30125338 237.49132673 5.3031559 242.88184547 C5.30528054 249.4502637 5.3000329 256.01862897 5.28554235 262.5870323 C5.27831294 265.93592121 5.27528348 269.28466869 5.27878571 272.63357353 C5.28200906 276.26697543 5.27292154 279.90014549 5.26069641 283.53352356 C5.26447573 284.58692785 5.26825506 285.64033213 5.27214891 286.72565776 C5.23778378 292.49882392 4.65887053 297.4631404 3 303 C2.67 303 2.34 303 2 303 C2.07087043 302.36303601 2.14174086 301.72607203 2.21475887 301.0698061 C3.37862847 288.74383103 3.13212648 276.38227222 3.11352539 264.0144043 C3.11324301 261.38197731 3.11335834 258.74955311 3.1139679 256.11712646 C3.11448969 250.47081207 3.11137905 244.82450932 3.10573006 239.17819786 C3.09756814 231.01479819 3.09499505 222.85140409 3.09374207 214.68800078 C3.09155889 201.44019069 3.08491878 188.1923868 3.07543945 174.94458008 C3.06624629 162.08325227 3.05917479 149.22192614 3.05493164 136.3605957 C3.05453756 135.16942708 3.05453756 135.16942708 3.05413551 133.95419445 C3.05283038 129.96996568 3.05156669 125.9857369 3.05032361 122.00150812 C3.03997387 89.0010009 3.02237562 56.00050128 3 23 C2.67 23 2.34 23 2 23 C1.93941406 21.94039062 1.87882812 20.88078125 1.81640625 19.7890625 C1.73199873 18.40102779 1.64735083 17.01300768 1.5625 15.625 C1.52318359 14.92632812 1.48386719 14.22765625 1.44335938 13.5078125 C1.25719866 9.62639508 1.25719866 9.62639508 0 6 C-0.039992 4.00039988 -0.04346799 1.99952758 0 0 Z " fill="#E36E2C" transform="translate(399,62)"/>
<path d="M0 0 C1.65 0 3.3 0 5 0 C4.5392907 0.38265196 4.07858141 0.76530391 3.60391122 1.15955138 C-1.95848519 7.54226425 -1.43637858 18.83608183 -1.39872742 26.84515381 C-1.40537424 27.97430025 -1.41202107 29.1034467 -1.41886932 30.2668097 C-1.4373873 34.01618329 -1.43490153 37.76523461 -1.43237305 41.51464844 C-1.44139705 44.21590504 -1.45159588 46.9171336 -1.46325684 49.61837769 C-1.48596122 55.41640567 -1.49791377 61.21437391 -1.50238609 67.01244354 C-1.50886798 75.3952726 -1.53184098 83.77799401 -1.55872939 92.16077951 C-1.60192004 105.76407219 -1.63193079 119.36736032 -1.65356445 132.97070312 C-1.67459735 146.17840816 -1.70189255 159.386076 -1.73754883 172.59375 C-1.73974765 173.40903411 -1.74194648 174.22431821 -1.74421193 175.0643079 C-1.75528216 179.15469609 -1.76647486 183.24508394 -1.77772844 187.33547163 C-1.87080412 221.22361664 -1.94245269 255.11177611 -2 289 C-2.33 289 -2.66 289 -3 289 C-3.12745655 253.25332623 -3.25485712 217.50665227 -3.38218227 181.75997804 C-3.39720314 177.54286622 -3.41222447 173.3257544 -3.42724609 169.10864258 C-3.43023671 168.26906676 -3.43322732 167.42949094 -3.43630856 166.56447343 C-3.48477776 152.95769509 -3.53328466 139.35091689 -3.58180541 125.74413874 C-3.63156541 111.78960126 -3.68128507 97.83506364 -3.73096704 83.88052589 C-3.76164197 75.26499397 -3.79234863 66.64946217 -3.82309544 58.03393052 C-3.84415664 52.13155141 -3.86517878 46.22917216 -3.88616979 40.3267928 C-3.89829423 36.9178975 -3.91043629 33.50900226 -3.92262459 30.10010719 C-3.9358108 26.40960838 -3.94893196 22.71910934 -3.96203613 19.02861023 C-3.96592708 17.94399228 -3.96981803 16.85937434 -3.97382689 15.74188918 C-3.97731028 14.75708188 -3.98079368 13.77227457 -3.98438263 12.75762463 C-3.98742039 11.90515248 -3.99045815 11.05268034 -3.99358797 10.17437571 C-3.9986742 8.44958998 -4 6.72479323 -4 5 C-3.01 4.67 -2.02 4.34 -1 4 C-0.26676204 1.98491642 -0.26676204 1.98491642 0 0 Z " fill="#EE5301" transform="translate(125,66)"/>
<path d="M0 0 C1.29731926 -0.00074805 1.29731926 -0.00074805 2.62084699 -0.00151122 C3.5663689 0.00820542 4.51189082 0.01792205 5.48606491 0.02793312 C6.99802228 0.03149517 6.99802228 0.03149517 8.54052424 0.03512919 C11.92781742 0.04557 15.31485187 0.07045021 18.70206833 0.09522438 C21.12626927 0.1056474 23.55047416 0.11518321 25.97468185 0.12389565 C31.19884964 0.14467253 36.4229468 0.17163836 41.64705276 0.2042141 C49.20023393 0.25130248 56.7534358 0.28725937 64.30668911 0.32049735 C76.56124952 0.37472576 88.81574626 0.43795969 101.07023239 0.50684547 C112.97450869 0.57374338 124.87879485 0.63640713 136.78312302 0.69336891 C137.88374804 0.69863758 137.88374804 0.69863758 139.00660792 0.70401268 C142.68760658 0.72160738 146.36860564 0.73911875 150.04960489 0.7565887 C180.58845365 0.90163325 211.1272096 1.0614379 241.66593552 1.23047829 C241.66593552 1.56047829 241.66593552 1.89047829 241.66593552 2.23047829 C210.82835017 2.38085462 179.9907452 2.5259638 149.15310114 2.66372589 C145.51195266 2.67999676 141.87080438 2.69631252 138.22965622 2.71265602 C137.504773 2.71590895 136.77988979 2.71916187 136.03304041 2.72251337 C124.29777602 2.77528258 112.56253177 2.8316871 100.82729094 2.88943649 C88.78473101 2.94861724 76.74215771 3.00388807 64.69956309 3.05553383 C57.93591107 3.08465242 51.17227729 3.11557461 44.40865517 3.15101242 C38.04353072 3.18418516 31.67840305 3.21253831 25.31324005 3.23718452 C22.97635133 3.24708456 20.63946932 3.25875008 18.30259895 3.27230835 C15.11271071 3.29055217 11.92285916 3.30245057 8.73293686 3.31276894 C7.80782631 3.31957273 6.88271577 3.32637652 5.92957157 3.33338648 C1.06181619 3.34182948 -3.53497858 3.05772163 -8.33406448 2.23047829 C-5.41745084 0.568015 -3.34814071 -0.01704756 0 0 Z " fill="#EF6109" transform="translate(88.33406448364258,11.769521713256836)"/>
<path d="M0 0 C1.32 0 2.64 0 4 0 C4 1.65 4 3.3 4 5 C3.34 4.01 2.68 3.02 2 2 C1.19743596 4.83732689 0.86415599 7.38593852 0.82641602 10.33105469 C0.81292618 11.18004333 0.79943634 12.02903198 0.78553772 12.90374756 C0.77509933 13.81722961 0.76466095 14.73071167 0.75390625 15.671875 C0.72091712 17.63672235 0.68770647 19.601566 0.65429688 21.56640625 C0.60731753 24.63978028 0.56297706 27.71314526 0.52319336 30.78662109 C0.06976779 64.2206477 0.06976779 64.2206477 -3.43920898 68.93261719 C-5 70 -5 70 -7.125 69.8125 C-9 69 -9 69 -10 67 C-8.35 67 -6.7 67 -5 67 C-4.06059678 61.37736746 -3.80697164 55.89393201 -3.71875 50.19921875 C-3.70034058 49.28163284 -3.68193115 48.36404694 -3.66296387 47.4186554 C-3.58467242 43.51611358 -3.51625083 39.61341769 -3.44775391 35.71069336 C-3.3961375 32.85261236 -3.33888952 29.99468359 -3.28125 27.13671875 C-3.26767456 26.25030197 -3.25409912 25.36388519 -3.2401123 24.4506073 C-3.11291578 18.22583156 -3.11291578 18.22583156 -2 16 C-1.79439193 13.66977522 -1.63400048 11.33543702 -1.5 9 C-1.11111111 2.22222222 -1.11111111 2.22222222 0 0 Z " fill="#E6671B" transform="translate(248,141)"/>
<path d="M0 0 C0.33 0 0.66 0 1 0 C1.0509083 6.68941989 1.08582084 13.37878939 1.10986328 20.06835938 C1.11989133 22.34181587 1.13351711 24.61525956 1.15087891 26.88867188 C1.17526784 30.16539682 1.18651534 33.44195051 1.1953125 36.71875 C1.20563507 37.72740112 1.21595764 38.73605225 1.22659302 39.77526855 C1.22749889 45.53444815 0.78752552 50.50643758 -1 56 C-3 58 -3 58 -5.625 58.125 C-6.40875 58.08375 -7.1925 58.0425 -8 58 C-11.02189486 52.1215526 -11.46650446 47.24591064 -11.51171875 40.69140625 C-11.52966995 39.72468491 -11.54762115 38.75796356 -11.56611633 37.76194763 C-11.61999511 34.69550853 -11.65404309 31.62922308 -11.6875 28.5625 C-11.72069286 26.4745881 -11.75518433 24.38669641 -11.79101562 22.29882812 C-11.87570875 17.19933001 -11.94262679 12.09987569 -12 7 C-11.34 6.67 -10.68 6.34 -10 6 C-9.96907761 6.87656754 -9.96907761 6.87656754 -9.93753052 7.77084351 C-9.72163074 13.83792947 -9.49241839 19.90440736 -9.25537109 25.97070312 C-9.1685991 28.23652457 -9.08525431 30.50247991 -9.00537109 32.76855469 C-8.89014138 36.02059336 -8.76270559 39.27195569 -8.6328125 42.5234375 C-8.59938751 43.54118256 -8.56596252 44.55892761 -8.53152466 45.60751343 C-8.49163422 46.54833771 -8.45174377 47.48916199 -8.41064453 48.45849609 C-8.37955597 49.28900482 -8.34846741 50.11951355 -8.31643677 50.97518921 C-8.16873524 53.22422855 -8.16873524 53.22422855 -6 55 C-5.01 54.505 -5.01 54.505 -4 54 C-3.34 54.33 -2.68 54.66 -2 55 C-1.34 36.85 -0.68 18.7 0 0 Z " fill="#D46F32" transform="translate(280,152)"/>
<path d="M0 0 C19.14 0 38.28 0 58 0 C58.495 2.475 58.495 2.475 59 5 C59.350625 5.66 59.70125 6.32 60.0625 7 C61.21088963 9.44989787 61.14853426 11.32638335 61 14 C58.4345406 11.4345406 58.45953913 9.52313332 58 6 C57.34 6 56.68 6 56 6 C56 5.34 56 4.68 56 4 C52.66117146 3.25513051 49.55582439 2.86731615 46.13720703 2.83886719 C45.19918243 2.82925964 44.26115784 2.8196521 43.29470825 2.80975342 C41.79144485 2.8033786 41.79144485 2.8033786 40.2578125 2.796875 C39.2160788 2.79117493 38.17434509 2.78547485 37.1010437 2.77960205 C34.90054332 2.77017101 32.70002893 2.76362562 30.49951172 2.75976562 C27.14395411 2.75005485 23.7890079 2.71901086 20.43359375 2.6875 C18.29167029 2.68096981 16.14974247 2.6757194 14.0078125 2.671875 C13.00968536 2.6595282 12.01155823 2.6471814 10.98318481 2.63446045 C5.19854595 2.65284416 1.13807425 3.29668953 -4 6 C-3.34 4.68 -2.68 3.36 -2 2 C-1.34 2 -0.68 2 0 2 C0 1.34 0 0.68 0 0 Z " fill="#D26323" transform="translate(130,65)"/>
<path d="M0 0 C1.32 0.66 2.64 1.32 4 2 C-1.29775785 17.52887751 -17.83897222 28.93135721 -31.67578125 36.25 C-34.48703753 37.15716169 -36.19217416 36.79513652 -39 36 C-35.70478482 33.80318988 -32.71995598 32.90043997 -28.9609375 31.78125 C-26.81111965 31.17673144 -26.81111965 31.17673144 -26 29 C-25.34 29 -24.68 29 -24 29 C-24 28.34 -24 27.68 -24 27 C-21.41210938 25.92578125 -21.41210938 25.92578125 -18.82421875 24.8515625 C-16.73466068 23.93193308 -16.73466068 23.93193308 -14 22 C-13.731875 21.195625 -13.46375 20.39125 -13.1875 19.5625 C-11.5688043 16.06952506 -9.4685058 15.4326437 -6 14 C-6.04125 13.05125 -6.0825 12.1025 -6.125 11.125 C-6 8 -6 8 -4 6 C-2.64837492 4.01231606 -1.31306433 2.0133653 0 0 Z " fill="#F86E10" transform="translate(391,378)"/>
<path d="M0 0 C4.16680899 3.17039815 6.31238554 4.94076752 8 10 C8.24050903 12.72724915 8.24050903 12.72724915 8.22705078 15.70825195 C8.22689972 16.82903641 8.22674866 17.94982086 8.22659302 19.10456848 C8.21627045 20.3036937 8.20594788 21.50281891 8.1953125 22.73828125 C8.1924826 23.97418503 8.18965271 25.21008881 8.18673706 26.48344421 C8.17745218 29.75664997 8.15950633 33.02965644 8.1373291 36.30279541 C8.11680817 39.64780848 8.10789268 42.99283026 8.09765625 46.33789062 C8.07732055 52.89208539 8.03816753 59.44578775 8 66 C-9.49 66 -26.98 66 -45 66 C-45 65.67 -45 65.34 -45 65 C-27.84 65 -10.68 65 7 65 C7 47.51 7 30.02 7 12 C6.34 12 5.68 12 5 12 C4.35242375 10.56328432 3.70700547 9.12559584 3.0625 7.6875 C2.52302734 6.48673828 2.52302734 6.48673828 1.97265625 5.26171875 C1 3 1 3 0 0 Z " fill="#D97639" transform="translate(240,241)"/>
<path d="M0 0 C5.74816822 0.01942592 11.49480669 0.07116039 17.24243164 0.15258789 C19.19677389 0.17575551 21.15124077 0.19016071 23.10571289 0.19555664 C25.91892043 0.20485532 28.73017112 0.24586475 31.54296875 0.29296875 C32.41398727 0.2890361 33.2850058 0.28510345 34.18241882 0.28105164 C38.59565992 0.38670984 40.44201147 0.56122242 44.0168457 3.37231445 C45.91505308 5.88744507 46.93809668 8.05934465 48 11 C48.66 11.33 49.32 11.66 50 12 C49.67 14.64 49.34 17.28 49 20 C47.45527794 17.35190504 46.73785062 14.90873112 46.125 11.9375 C45.45691343 9.107338 45.17589634 8.17589634 43.0625 6.0625 C38.57370066 3.75008822 34.3263014 3.78463602 29.39453125 3.68359375 C28.13572395 3.6524221 28.13572395 3.6524221 26.85148621 3.62062073 C24.17190706 3.55525982 21.49223031 3.49630286 18.8125 3.4375 C16.99543263 3.39430198 15.17837512 3.35068727 13.36132812 3.30664062 C8.90765201 3.1995922 4.45387774 3.09828681 0 3 C0 2.01 0 1.02 0 0 Z " fill="#DF6D26" transform="translate(269,304)"/>
<path d="M0 0 C0.33 0 0.66 0 1 0 C1 14.19 1 28.38 1 43 C1.66 43 2.32 43 3 43 C3.33 44.65 3.66 46.3 4 48 C21.49 48.33 38.98 48.66 57 49 C57 49.33 57 49.66 57 50 C49.36461689 50.10124722 41.72940623 50.17140114 34.09350586 50.21972656 C31.49480724 50.23986774 28.89615407 50.26718228 26.29760742 50.30175781 C22.56678058 50.35016388 18.8365518 50.37294401 15.10546875 50.390625 C13.93976852 50.41127014 12.7740683 50.43191528 11.57304382 50.45318604 C10.49214981 50.45348816 9.4112558 50.45379028 8.29760742 50.45410156 C7.34496506 50.46298401 6.39232269 50.47186646 5.41081238 50.48101807 C3 50 3 50 1.19018555 48.26391602 C-0.15384988 45.70735385 -0.36425063 44.19574279 -0.34057617 41.32324219 C-0.34034958 40.40258972 -0.34012299 39.48193726 -0.33988953 38.53338623 C-0.32440567 37.54783752 -0.30892181 36.56228882 -0.29296875 35.546875 C-0.28872391 34.53151672 -0.28447906 33.51615845 -0.28010559 32.47003174 C-0.26332424 29.22975046 -0.22567241 25.99009303 -0.1875 22.75 C-0.17245249 20.55209232 -0.1587642 18.35417488 -0.14648438 16.15625 C-0.11342255 10.77062078 -0.06322836 5.38535497 0 0 Z " fill="#D75C17" transform="translate(190,256)"/>
<path d="M0 0 C0 3 0 3 -1 6 C-3.01452812 7.87397964 -5.13860528 9.56099123 -7.28515625 11.28125 C-9.35315094 12.94930222 -9.35315094 12.94930222 -9 16 C-9.66 16.33 -10.32 16.66 -11 17 C-11.4577088 20.09008499 -11.4577088 20.09008499 -11.58984375 23.875 C-11.62665756 24.585354 -11.66347137 25.29570801 -11.70140076 26.02758789 C-12.12679757 34.67988565 -12.34776364 43.34042775 -12.5625 52 C-12.60585528 53.66146526 -12.64947383 55.32292367 -12.69335938 56.984375 C-12.79859263 60.98951129 -12.90031678 64.99472189 -13 69 C-13.33 69 -13.66 69 -14 69 C-14.04974337 62.77442567 -14.08588128 56.54896916 -14.10986328 50.32324219 C-14.11986979 48.20896385 -14.13347918 46.09469917 -14.15087891 43.98046875 C-14.17536388 40.92704886 -14.18653691 37.87381326 -14.1953125 34.8203125 C-14.20563507 33.88760529 -14.21595764 32.95489807 -14.22659302 31.993927 C-14.2279225 24.07152035 -14.08185768 15.44304117 -8.6875 9.1875 C-7.76324219 8.09695312 -7.76324219 8.09695312 -6.8203125 6.984375 C-4.60942403 4.5742219 -2.38408059 2.23959085 0 0 Z " fill="#E56E34" transform="translate(282,234)"/>
<path d="M0 0 C1.65 0.33 3.3 0.66 5 1 C5 16.18 5 31.36 5 47 C4.34 47 3.68 47 3 47 C3 32.15 3 17.3 3 2 C1.68 2.33 0.36 2.66 -1 3 C-0.67 2.01 -0.34 1.02 0 0 Z " fill="#E4702E" transform="translate(232,141)"/>
<path d="M0 0 C1.00076967 3.00230902 1.04569256 4.55826698 0.83813477 7.6550293 C0.77799698 8.59577805 0.71785919 9.53652679 0.65589905 10.50578308 C0.58511642 11.51836685 0.5143338 12.53095062 0.44140625 13.57421875 C0.33940163 15.13267265 0.33940163 15.13267265 0.2353363 16.72261047 C0.01661667 20.04463636 -0.21034456 23.36604131 -0.4375 26.6875 C-0.5871312 28.93811503 -0.73622648 31.18876576 -0.88476562 33.43945312 C-1.25029015 38.96006489 -1.62258479 44.48018909 -2 50 C-2.33 50 -2.66 50 -3 50 C-2.99476318 49.28980713 -2.98952637 48.57961426 -2.98413086 47.84790039 C-2.96316239 44.5861095 -2.95027719 41.32433286 -2.9375 38.0625 C-2.92912109 36.94552734 -2.92074219 35.82855469 -2.91210938 34.67773438 C-2.78244373 23.68771568 -2.78244373 23.68771568 -5 13 C-4.34 12.34 -3.68 11.68 -3 11 C-2.745411 8.99511162 -2.49443135 6.98801927 -2.34375 4.97265625 C-2 3 -2 3 0 0 Z " fill="#DA6823" transform="translate(231,148)"/>
<path d="M0 0 C4.75 0.75 4.75 0.75 7 3 C8.68133441 10.52251383 7.94828592 18.49796793 7.5625 26.125 C7.51029297 27.27226562 7.45808594 28.41953125 7.40429688 29.6015625 C7.27597055 32.40140963 7.14108111 35.20077156 7 38 C6.67 38 6.34 38 6 38 C5.91697632 36.68394775 5.91697632 36.68394775 5.83227539 35.34130859 C5.62410748 32.06477604 5.41318703 28.78844419 5.20043945 25.51220703 C5.10917766 24.09821462 5.0189915 22.68415234 4.92993164 21.27001953 C4.80121791 19.22929569 4.66854939 17.18886018 4.53515625 15.1484375 C4.456604 13.92302246 4.37805176 12.69760742 4.29711914 11.43505859 C4.02120197 8.2451206 3.57527791 5.14822417 3 2 C2.67 2 2.34 2 2 2 C1.67 3.65 1.34 5.3 1 7 C0.67 7 0.34 7 0 7 C0 4.69 0 2.38 0 0 Z " fill="#D96725" transform="translate(281,141)"/>
<path d="M0 0 C1.65 0 3.3 0 5 0 C4.53891846 0.38639648 4.07783691 0.77279297 3.6027832 1.17089844 C-2.5135955 8.15093031 -1.52881039 21.06287734 -1.6875 29.75 C-1.72166016 31.03132813 -1.75582031 32.31265625 -1.79101562 33.6328125 C-1.87256845 36.75512062 -1.94201577 39.87718059 -2 43 C-2.33 43 -2.66 43 -3 43 C-3.14296383 38.07040958 -3.28536564 33.14080336 -3.42724609 28.21118164 C-3.47559399 26.53409384 -3.5240956 24.85701046 -3.57275391 23.17993164 C-3.64265688 20.76970548 -3.7120075 18.35946396 -3.78125 15.94921875 C-3.80312378 15.19912033 -3.82499756 14.44902191 -3.84753418 13.67619324 C-3.93022824 10.78283704 -4 7.89472012 -4 5 C-3.01 4.67 -2.02 4.34 -1 4 C-0.26676204 1.98491642 -0.26676204 1.98491642 0 0 Z " fill="#F05803" transform="translate(125,66)"/>
<path d="M0 0 C0.66 0.33 1.32 0.66 2 1 C-5.61441834 8.28407481 -13.82824135 15.60378158 -24 19 C-26.8125 18.625 -26.8125 18.625 -29 18 C-25.70478482 15.80318988 -22.71995598 14.90043997 -18.9609375 13.78125 C-16.81111965 13.17673144 -16.81111965 13.17673144 -16 11 C-15.34 11 -14.68 11 -14 11 C-14 10.34 -14 9.68 -14 9 C-12.27473958 8.28385417 -10.54947917 7.56770833 -8.82421875 6.8515625 C-6.73466068 5.93193308 -6.73466068 5.93193308 -4 4 C-3.67 3.01 -3.34 2.02 -3 1 C-2.01 0.67 -1.02 0.34 0 0 Z " fill="#D96F33" transform="translate(381,396)"/>
<path d="M0 0 C3.3 0 6.6 0 10 0 C5.23649193 4.76350807 -3.23251639 5.05948915 -9.72119141 5.14599609 C-14.92274165 5.1120288 -20.11595576 4.90471583 -25.3125 4.6875 C-27.13210751 4.62408378 -28.95176995 4.56222371 -30.77148438 4.50195312 C-35.1818272 4.35254255 -39.59089441 4.1821839 -44 4 C-44 3.67 -44 3.34 -44 3 C-42.95134766 3.01047363 -41.90269531 3.02094727 -40.82226562 3.03173828 C-36.90107691 3.06816344 -32.97990292 3.09098178 -29.05859375 3.10986328 C-27.36716184 3.11986984 -25.67574701 3.13347931 -23.984375 3.15087891 C-21.54162358 3.17536403 -19.09910251 3.18653672 -16.65625 3.1953125 C-15.53700134 3.21079636 -15.53700134 3.21079636 -14.3951416 3.22659302 C-9.28804846 3.22766432 -4.91388283 2.40327286 0 1 C0 0.67 0 0.34 0 0 Z " fill="#E55C05" transform="translate(344,415)"/>
<path d="M0 0 C0.33 0 0.66 0 1 0 C1.33809228 5.22778068 1.65886159 10.45624808 1.96435547 15.68603516 C2.07039912 17.46105762 2.1809841 19.23581534 2.29638672 21.01025391 C3.69880347 42.68064148 3.69880347 42.68064148 1 48 C-1.08154297 49.24365234 -1.08154297 49.24365234 -3 50 C-2.78561279 49.36288086 -2.57122559 48.72576172 -2.3503418 48.06933594 C0.59031138 38.12847284 0.34004957 28.50440144 0.1875 18.25 C0.17241866 16.47396974 0.15873639 14.69792703 0.14648438 12.921875 C0.11376858 8.61427011 0.06217936 4.3072762 0 0 Z " fill="#C05B2A" transform="translate(288,180)"/>
<path d="M0 0 C0.33 0 0.66 0 1 0 C1 12.21 1 24.42 1 37 C0.67 37 0.34 37 0 37 C-0.34103465 33.85495307 -0.67137463 30.70886583 -1 27.5625 C-1.09539062 26.68400391 -1.19078125 25.80550781 -1.2890625 24.90039062 C-1.87468396 19.23241145 -2.09274645 13.69811032 -2 8 C-1.34 8 -0.68 8 0 8 C0 5.36 0 2.72 0 0 Z " fill="#F45B0A" transform="translate(318,316)"/>
<path d="M0 0 C0.99 0 1.98 0 3 0 C3.33 3.3 3.66 6.6 4 10 C3.34 10 2.68 10 2 10 C2 20.56 2 31.12 2 42 C1.67 42 1.34 42 1 42 C0.505 21.21 0.505 21.21 0 0 Z " fill="#E65D10" transform="translate(278,142)"/>
<path d="M0 0 C0.33 0 0.66 0 1 0 C1.66 10.56 2.32 21.12 3 32 C2.01 31.67 1.02 31.34 0 31 C0 20.77 0 10.54 0 0 Z " fill="#E25C14" transform="translate(226,190)"/>
<path d="M0 0 C4.19360449 0.67097672 7.40334352 2.8558394 11 5 C11.33 4.34 11.66 3.68 12 3 C13.32 3 14.64 3 16 3 C16 3.66 16 4.32 16 5 C17.65 5 19.3 5 21 5 C21 5.66 21 6.32 21 7 C18.92446352 7.5534764 17.15634036 8 15 8 C14.01 8.33 13.02 8.66 12 9 C9.08203125 7.3828125 9.08203125 7.3828125 5.8125 5.125 C4.72582031 4.38507813 3.63914063 3.64515625 2.51953125 2.8828125 C1.68808594 2.26148438 0.85664062 1.64015625 0 1 C0 0.67 0 0.34 0 0 Z " fill="#EE711F" transform="translate(48,403)"/>
<path d="M0 0 C2 3 2 3 1.875 5.125 C0.61925902 9.25100606 -1.17275923 13.09905342 -3 17 C-3.33 17 -3.66 17 -4 17 C-4 15.02 -4 13.04 -4 11 C-4.99 10.67 -5.98 10.34 -7 10 C-7 9.01 -7 8.02 -7 7 C-5.35 7 -3.7 7 -2 7 C-1.34 4.69 -0.68 2.38 0 0 Z " fill="#E8691A" transform="translate(399,363)"/>
<path d="M0 0 C1 2 1 2 0.4375 3.875 C-1.5296911 6.78302162 -4.064169 8.10034465 -7 10 C-10.05500685 12.77727895 -12.43191999 15.15107633 -14 19 C-14.66 19 -15.32 19 -16 19 C-14.49683541 14.00197773 -11.51507055 10.93916603 -8 7.25 C-7.18015625 6.36634766 -7.18015625 6.36634766 -6.34375 5.46484375 C-2.29383117 1.14691558 -2.29383117 1.14691558 0 0 Z " fill="#DF7533" transform="translate(48,29)"/>
<path d="M0 0 C0.61875 0.598125 1.2375 1.19625 1.875 1.8125 C5.98491654 4.68944158 10.18171396 5.76502183 15 7 C15 7.33 15 7.66 15 8 C11.04 8 7.08 8 3 8 C3 7.34 3 6.68 3 6 C2.34 6 1.68 6 1 6 C1 7.32 1 8.64 1 10 C0.34 10 -0.32 10 -1 10 C-0.67 6.7 -0.34 3.4 0 0 Z " fill="#E85D16" transform="translate(125,356)"/>
<path d="M0 0 C4.29 0 8.58 0 13 0 C13.33 1.65 13.66 3.3 14 5 C14.350625 5.66 14.70125 6.32 15.0625 7 C16.21088963 9.44989787 16.14853426 11.32638335 16 14 C13.4345406 11.4345406 13.45953913 9.52313332 13 6 C12.34 6 11.68 6 11 6 C11 5.34 11 4.68 11 4 C7.37 3.01 3.74 2.02 0 1 C0 0.67 0 0.34 0 0 Z " fill="#E36922" transform="translate(175,65)"/>
<path d="M0 0 C4.28621938 6.42932907 5.53418358 15.34336868 5 23 C4.01 23 3.02 23 2 23 C1.93941406 21.94039062 1.87882812 20.88078125 1.81640625 19.7890625 C1.73199873 18.40102779 1.64735083 17.01300768 1.5625 15.625 C1.52318359 14.92632812 1.48386719 14.22765625 1.44335938 13.5078125 C1.25719866 9.62639508 1.25719866 9.62639508 0 6 C-0.039992 4.00039988 -0.04346799 1.99952758 0 0 Z " fill="#DC6822" transform="translate(399,62)"/>
<path d="M0 0 C0.33 0 0.66 0 1 0 C1.05441656 1.89551022 1.09298035 3.7914792 1.125 5.6875 C1.14820313 6.74324219 1.17140625 7.79898438 1.1953125 8.88671875 C0.92656016 13.17063107 0.04732617 15.95267383 -3 19 C-5.0625 18.75 -5.0625 18.75 -7 18 C-7.33 17.34 -7.66 16.68 -8 16 C-6.35 16 -4.7 16 -3 16 C-2.855625 14.865625 -2.71125 13.73125 -2.5625 12.5625 C-2 9 -2 9 -1 8 C-0.76924918 6.65252916 -0.58846937 5.29622435 -0.4375 3.9375 C-0.293125 2.638125 -0.14875 1.33875 0 0 Z " fill="#D97130" transform="translate(246,192)"/>
<path d="M0 0 C0.33 0 0.66 0 1 0 C1 3.63 1 7.26 1 11 C1.99 10.67 2.98 10.34 4 10 C3.67 13.63 3.34 17.26 3 21 C-0.20726252 16.18910622 -0.11575794 12.50185764 -0.0625 6.75 C-0.05347656 5.48671875 -0.04445313 4.2234375 -0.03515625 2.921875 C-0.02355469 1.95765625 -0.01195313 0.9934375 0 0 Z " fill="#EA6F26" transform="translate(20,346)"/>
<path d="M0 0 C1.96070244 2.94105366 3.40987735 5.87212648 4.90234375 9.0625 C6.04258922 11.07517528 7.29765267 12.44800243 9 14 C8.67 14.66 8.34 15.32 8 16 C4.18687371 14.77435227 2.60989482 12.41136694 0.75 8.953125 C-0.40498408 5.94535397 -0.25867923 3.16882063 0 0 Z " fill="#DD6424" transform="translate(229,223)"/>
<path d="M0 0 C0.66 0 1.32 0 2 0 C1.45162532 5.20955943 0.81162014 10.06836739 -1 15 C-1.99 15.33 -2.98 15.66 -4 16 C-2.68 10.72 -1.36 5.44 0 0 Z " fill="#DA6423" transform="translate(289,214)"/>
<path d="M0 0 C1.485 0.99 1.485 0.99 3 2 C4.32 1.34 5.64 0.68 7 0 C7.04254356 1.99954746 7.04080783 4.00041636 7 6 C6 7 6 7 3.4375 7.0625 C2.2309375 7.0315625 2.2309375 7.0315625 1 7 C0.67 4.69 0.34 2.38 0 0 Z " fill="#ED7118" transform="translate(253,202)"/>
<path d="M0 0 C1.65 0 3.3 0 5 0 C4.53980469 0.36738281 4.07960937 0.73476562 3.60546875 1.11328125 C1.44918412 3.64730918 1.04153333 5.95892383 0.3125 9.1875 C0.06113281 10.27417969 -0.19023438 11.36085938 -0.44921875 12.48046875 C-0.63097656 13.31191406 -0.81273438 14.14335938 -1 15 C-1.33 15 -1.66 15 -2 15 C-2 12.36 -2 9.72 -2 7 C-2.99 7 -3.98 7 -5 7 C-4 5 -4 5 -1 4 C-0.26676204 1.98491642 -0.26676204 1.98491642 0 0 Z " fill="#EF6011" transform="translate(125,66)"/>
<path d="M0 0 C3.90285767 1.58667578 6.33520982 4.13350481 9.25 7.125 C10.14203125 8.03507812 11.0340625 8.94515625 11.953125 9.8828125 C12.62859375 10.58148438 13.3040625 11.28015625 14 12 C13.67 12.66 13.34 13.32 13 14 C11.38869977 12.61240749 9.78624159 11.21454377 8.1875 9.8125 C7.29417969 9.03519531 6.40085937 8.25789063 5.48046875 7.45703125 C3.1068383 5.10582881 1.56759953 2.93208816 0 0 Z " fill="#E4732F" transform="translate(34,389)"/>
<path d="M0 0 C6.828125 5.1953125 6.828125 5.1953125 8 10 C8.125 13.3125 8.125 13.3125 8 16 C7.67 14.68 7.34 13.36 7 12 C6.34 12 5.68 12 5 12 C4.35242375 10.56328432 3.70700547 9.12559584 3.0625 7.6875 C2.70285156 6.88699219 2.34320313 6.08648437 1.97265625 5.26171875 C1 3 1 3 0 0 Z " fill="#DC6928" transform="translate(240,241)"/>
<path d="M0 0 C0.66 0.33 1.32 0.66 2 1 C-0.21928194 3.90802461 -1.92969143 5.95312762 -5 8 C-7.6875 8.125 -7.6875 8.125 -10 8 C-6.91367389 4.7373124 -4.06516496 1.97764782 0 0 Z " fill="#E56C25" transform="translate(59,21)"/>
<path d="M0 0 C3.3 0 6.6 0 10 0 C7.35869909 2.64130091 5.19121892 2.82401188 1.5625 3.625 C0.40878906 3.88539063 -0.74492187 4.14578125 -1.93359375 4.4140625 C-5 5 -5 5 -8 5 C-8 4.34 -8 3.68 -8 3 C-5.36 2.34 -2.72 1.68 0 1 C0 0.67 0 0.34 0 0 Z " fill="#DD752A" transform="translate(344,415)"/>
<path d="M0 0 C0.5625 1.9375 0.5625 1.9375 1 4 C0.67 4.33 0.34 4.66 0 5 C0.08937803 6.52519276 0.24537146 8.04681929 0.4375 9.5625 C0.53933594 10.38878906 0.64117187 11.21507812 0.74609375 12.06640625 C0.82988281 12.70449219 0.91367188 13.34257812 1 14 C0.34 14 -0.32 14 -1 14 C-1.33 10.7 -1.66 7.4 -2 4 C-3.32 3.67 -4.64 3.34 -6 3 C-4.02 2.67 -2.04 2.34 0 2 C0 1.34 0 0.68 0 0 Z " fill="#F5670A" transform="translate(254,137)"/>
<path d="M0 0 C0.33 0 0.66 0 1 0 C1.06058594 0.68707031 1.12117187 1.37414062 1.18359375 2.08203125 C1.26738281 2.98308594 1.35117188 3.88414062 1.4375 4.8125 C1.51871094 5.70582031 1.59992188 6.59914062 1.68359375 7.51953125 C1.93489767 10.12743559 1.93489767 10.12743559 3 13 C2.72428861 15.00875442 2.39764263 17.01178687 2 19 C-0.38648474 15.4202729 -0.47272601 12.52990054 -0.6875 8.375 C-0.73455078 7.68148437 -0.78160156 6.98796875 -0.83007812 6.2734375 C-0.93466051 4.51782494 -0.97271996 2.75851322 -1 1 C-0.67 0.67 -0.34 0.34 0 0 Z " fill="#D5672A" transform="translate(236,189)"/>
<path d="M0 0 C0.99 0 1.98 0 3 0 C3.33 3.3 3.66 6.6 4 10 C3.01 10.33 2.02 10.66 1 11 C0.67 7.37 0.34 3.74 0 0 Z " fill="#F55C0D" transform="translate(278,142)"/>
<path d="M0 0 C1.37562854 1.28965176 2.70766393 2.62689293 4 4 C4 4.66 4 5.32 4 6 C3.01 6 2.02 6 1 6 C1 7.32 1 8.64 1 10 C0.34 10 -0.32 10 -1 10 C-0.67 6.7 -0.34 3.4 0 0 Z " fill="#EE6818" transform="translate(125,356)"/>
<path d="M0 0 C0 0.66 0 1.32 0 2 C-3.78187881 3.83691257 -5.94568308 4.15837626 -10 3 C-6.1865669 0.45771127 -4.5252563 -0.11908569 0 0 Z " fill="#E47720" transform="translate(362,411)"/>
<path d="M0 0 C0.99 0 1.98 0 3 0 C2.9375 1.8125 2.9375 1.8125 2 4 C-1.5625 5.75 -1.5625 5.75 -5 7 C-5 5 -5 5 -3.625 3.375 C-2 2 -2 2 0 2 C0 1.34 0 0.68 0 0 Z " fill="#E26F2A" transform="translate(367,405)"/>
<path d="M0 0 C0.66 0.33 1.32 0.66 2 1 C1 4 1 4 -1.25 5.1875 C-3.99791147 5.99938294 -6.15447889 6.16260121 -9 6 C-6.59027489 3.59027489 -4.04587368 2.49053393 -1 1 C-0.67 0.67 -0.34 0.34 0 0 Z " fill="#DC6523" transform="translate(314,357)"/>
<path d="M0 0 C0.98484375 0.01804687 1.9696875 0.03609375 2.984375 0.0546875 C4.10585937 0.08949219 4.10585937 0.08949219 5.25 0.125 C5.25 0.455 5.25 0.785 5.25 1.125 C-0.32432514 2.78751802 -4.0567505 3.31109365 -9.75 2.125 C-6.40060119 0.09941119 -3.88037449 -0.09238987 0 0 Z " fill="#E47124" transform="translate(89.75,11.875)"/>
<path d="M0 0 C0 0.99 0 1.98 0 3 C-2.3125 4.75 -2.3125 4.75 -5 6 C-5.99 5.67 -6.98 5.34 -8 5 C-7.236875 4.54625 -6.47375 4.0925 -5.6875 3.625 C-3.76367186 2.46175508 -1.87058776 1.2470585 0 0 Z " fill="#E56823" transform="translate(386,391)"/>
<path d="M0 0 C0.99 0 1.98 0 3 0 C1.125 5.75 1.125 5.75 0 8 C-0.99 7.67 -1.98 7.34 -3 7 C-2.01 4.69 -1.02 2.38 0 0 Z " fill="#F25A14" transform="translate(284,230)"/>
<path d="M0 0 C0.33 0.66 0.66 1.32 1 2 C0.3125 4.0625 0.3125 4.0625 -1 6 C-3.125 6.75 -3.125 6.75 -5 7 C-2.25 1.125 -2.25 1.125 0 0 Z " fill="#EE6820" transform="translate(48,29)"/>
<path d="M0 0 C0.99 0 1.98 0 3 0 C1.68775452 3.93673644 0.08089673 6.22719294 -3 9 C-2.30058404 5.85262818 -1.23921302 2.97411124 0 0 Z " fill="#DA6E2C" transform="translate(392,380)"/>
<path d="M0 0 C1 3 1 3 1 5 C0.01 5.495 0.01 5.495 -1 6 C-1.65555119 8.52733235 -1.65555119 8.52733235 -2 11 C-2.33 11 -2.66 11 -3 11 C-3.32613618 6.32538149 -2.70582788 3.83325617 0 0 Z " fill="#D36531" transform="translate(272,245)"/>
<path d="" fill="#FFFFFF" transform="translate(0,0)"/>
<path d="" fill="#FFFFFF" transform="translate(0,0)"/>
<path d="" fill="#FFFFFF" transform="translate(0,0)"/>
<path d="" fill="#FFFFFF" transform="translate(0,0)"/>
<path d="" fill="#FFFFFF" transform="translate(0,0)"/>
<path d="" fill="#FFFFFF" transform="translate(0,0)"/>
<path d="" fill="#FFFFFF" transform="translate(0,0)"/>
<path d="" fill="#FFFFFF" transform="translate(0,0)"/>
<path d="" fill="#FFFFFF" transform="translate(0,0)"/>
<path d="" fill="#FFFFFF" transform="translate(0,0)"/>
<path d="" fill="#FFFFFF" transform="translate(0,0)"/>
<path d="" fill="#FFFFFF" transform="translate(0,0)"/>
<path d="" fill="#FFFFFF" transform="translate(0,0)"/>
<path d="" fill="#FFFFFF" transform="translate(0,0)"/>
<path d="" fill="#FFFFFF" transform="translate(0,0)"/>
<path d="" fill="#FFFFFF" transform="translate(0,0)"/>
<path d="" fill="#FFFFFF" transform="translate(0,0)"/>
<path d="" fill="#FFFFFF" transform="translate(0,0)"/>
<path d="" fill="#FFFFFF" transform="translate(0,0)"/>
<path d="" fill="#FFFFFF" transform="translate(0,0)"/>
<path d="" fill="#FFFFFF" transform="translate(0,0)"/>
<path d="" fill="#FFFFFF" transform="translate(0,0)"/>
<path d="" fill="#FFFFFF" transform="translate(0,0)"/>
<path d="" fill="#FFFFFF" transform="translate(0,0)"/>
<path d="" fill="#FFFFFF" transform="translate(0,0)"/>
<path d="" fill="#FFFFFF" transform="translate(0,0)"/>
<path d="" fill="#FFFFFF" transform="translate(0,0)"/>
</svg>
